# Blender v2.79 (sub 0) OBJ File: 'numeros3d.blend'
# www.blender.org
mtllib 2.mtl
o Text_Text.005
v 1.575334 1.114959 0.834915
v 1.575334 0.991387 0.834915
v 1.575189 0.986312 0.834915
v 1.574756 0.981146 0.834915
v 1.574034 0.975889 0.834915
v 1.573023 0.970542 0.834915
v 1.571723 0.965105 0.834915
v 1.570134 0.959576 0.834915
v 1.568256 0.953957 0.834915
v 1.566090 0.948248 0.834915
v 1.563634 0.942447 0.834915
v 1.560890 0.936556 0.834915
v 1.557857 0.930575 0.834915
v 1.554534 0.924503 0.834915
v 1.379167 0.618222 0.834915
v 1.574518 0.618222 0.834915
v 1.574518 0.534617 0.834915
v 1.264975 0.534617 0.834915
v 1.264975 0.593752 0.834915
v 1.481125 0.973850 0.834915
v 1.481125 1.091713 0.834915
v 1.364893 1.091713 0.834915
v 1.364893 0.973035 0.834915
v 1.271500 0.973035 0.834915
v 1.271500 1.114959 0.834915
v 1.271905 1.124209 0.834915
v 1.273120 1.132655 0.834915
v 1.275145 1.140296 0.834915
v 1.277980 1.147133 0.834915
v 1.281625 1.153165 0.834915
v 1.286080 1.158393 0.834915
v 1.291345 1.162817 0.834915
v 1.297420 1.166437 0.834915
v 1.304305 1.169252 0.834915
v 1.312000 1.171263 0.834915
v 1.320505 1.172469 0.834915
v 1.329820 1.172871 0.834915
v 1.517014 1.172871 0.834915
v 1.526329 1.172469 0.834915
v 1.534834 1.171263 0.834915
v 1.542529 1.169252 0.834915
v 1.549414 1.166437 0.834915
v 1.555489 1.162817 0.834915
v 1.560754 1.158394 0.834915
v 1.565209 1.153165 0.834915
v 1.568854 1.147133 0.834915
v 1.571689 1.140296 0.834915
v 1.573714 1.132655 0.834915
v 1.574929 1.124209 0.834915
v 1.575334 1.114959 0.734915
v 1.575334 0.991387 0.734915
v 1.575189 0.986312 0.734915
v 1.574756 0.981146 0.734915
v 1.574034 0.975889 0.734915
v 1.573023 0.970542 0.734915
v 1.571723 0.965105 0.734915
v 1.570134 0.959576 0.734915
v 1.568256 0.953957 0.734915
v 1.566090 0.948248 0.734915
v 1.563634 0.942447 0.734915
v 1.560890 0.936556 0.734915
v 1.557857 0.930575 0.734915
v 1.554534 0.924503 0.734915
v 1.379167 0.618222 0.734915
v 1.574518 0.618222 0.734915
v 1.574518 0.534617 0.734915
v 1.264975 0.534617 0.734915
v 1.264975 0.593752 0.734915
v 1.481125 0.973850 0.734915
v 1.481125 1.091713 0.734915
v 1.364893 1.091713 0.734915
v 1.364893 0.973035 0.734915
v 1.271500 0.973035 0.734915
v 1.271500 1.114959 0.734915
v 1.271905 1.124209 0.734915
v 1.273120 1.132655 0.734915
v 1.275145 1.140296 0.734915
v 1.277980 1.147133 0.734915
v 1.281625 1.153165 0.734915
v 1.286080 1.158393 0.734915
v 1.291345 1.162817 0.734915
v 1.297420 1.166437 0.734915
v 1.304305 1.169252 0.734915
v 1.312000 1.171263 0.734915
v 1.320505 1.172469 0.734915
v 1.329820 1.172871 0.734915
v 1.517014 1.172871 0.734915
v 1.526329 1.172469 0.734915
v 1.534834 1.171263 0.734915
v 1.542529 1.169252 0.734915
v 1.549414 1.166437 0.734915
v 1.555489 1.162817 0.734915
v 1.560754 1.158394 0.734915
v 1.565209 1.153165 0.734915
v 1.568854 1.147133 0.734915
v 1.571689 1.140296 0.734915
v 1.573714 1.132655 0.734915
v 1.574929 1.124209 0.734915
v 1.575334 1.114959 0.734915
v 1.575334 1.114959 0.834915
v 1.575334 0.991387 0.734915
v 1.575334 0.991387 0.834915
v 1.575189 0.986312 0.734915
v 1.575189 0.986312 0.834915
v 1.574756 0.981146 0.734915
v 1.574756 0.981146 0.834915
v 1.574034 0.975889 0.734915
v 1.574034 0.975889 0.834915
v 1.573023 0.970542 0.734915
v 1.573023 0.970542 0.834915
v 1.571723 0.965105 0.734915
v 1.571723 0.965105 0.834915
v 1.570134 0.959576 0.734915
v 1.570134 0.959576 0.834915
v 1.568256 0.953957 0.734915
v 1.568256 0.953957 0.834915
v 1.566090 0.948248 0.734915
v 1.566090 0.948248 0.834915
v 1.563634 0.942447 0.734915
v 1.563634 0.942447 0.834915
v 1.560890 0.936556 0.734915
v 1.560890 0.936556 0.834915
v 1.557857 0.930575 0.734915
v 1.557857 0.930575 0.834915
v 1.554534 0.924503 0.734915
v 1.554534 0.924503 0.834915
v 1.379167 0.618222 0.734915
v 1.379167 0.618222 0.834915
v 1.574518 0.618222 0.734915
v 1.574518 0.618222 0.834915
v 1.574518 0.534617 0.734915
v 1.574518 0.534617 0.834915
v 1.264975 0.534617 0.734915
v 1.264975 0.534617 0.834915
v 1.264975 0.593752 0.734915
v 1.264975 0.593752 0.834915
v 1.481125 0.973850 0.734915
v 1.481125 0.973850 0.834915
v 1.481125 1.091713 0.734915
v 1.481125 1.091713 0.834915
v 1.364893 1.091713 0.734915
v 1.364893 1.091713 0.834915
v 1.364893 0.973035 0.734915
v 1.364893 0.973035 0.834915
v 1.271500 0.973035 0.734915
v 1.271500 0.973035 0.834915
v 1.271500 1.114959 0.734915
v 1.271500 1.114959 0.834915
v 1.271905 1.124209 0.734915
v 1.271905 1.124209 0.834915
v 1.273120 1.132655 0.734915
v 1.273120 1.132655 0.834915
v 1.275145 1.140296 0.734915
v 1.275145 1.140296 0.834915
v 1.277980 1.147133 0.734915
v 1.277980 1.147133 0.834915
v 1.281625 1.153165 0.734915
v 1.281625 1.153165 0.834915
v 1.286080 1.158393 0.734915
v 1.286080 1.158393 0.834915
v 1.291345 1.162817 0.734915
v 1.291345 1.162817 0.834915
v 1.297420 1.166437 0.734915
v 1.297420 1.166437 0.834915
v 1.304305 1.169252 0.734915
v 1.304305 1.169252 0.834915
v 1.312000 1.171263 0.734915
v 1.312000 1.171263 0.834915
v 1.320505 1.172469 0.734915
v 1.320505 1.172469 0.834915
v 1.329820 1.172871 0.734915
v 1.329820 1.172871 0.834915
v 1.517014 1.172871 0.734915
v 1.517014 1.172871 0.834915
v 1.526329 1.172469 0.734915
v 1.526329 1.172469 0.834915
v 1.534834 1.171263 0.734915
v 1.534834 1.171263 0.834915
v 1.542529 1.169252 0.734915
v 1.542529 1.169252 0.834915
v 1.549414 1.166437 0.734915
v 1.549414 1.166437 0.834915
v 1.555489 1.162817 0.734915
v 1.555489 1.162817 0.834915
v 1.560754 1.158394 0.734915
v 1.560754 1.158394 0.834915
v 1.565209 1.153165 0.734915
v 1.565209 1.153165 0.834915
v 1.568854 1.147133 0.734915
v 1.568854 1.147133 0.834915
v 1.571689 1.140296 0.734915
v 1.571689 1.140296 0.834915
v 1.573714 1.132655 0.734915
v 1.573714 1.132655 0.834915
v 1.574929 1.124209 0.734915
v 1.574929 1.124209 0.834915
vn 0.0000 0.0000 1.0000
vn 0.0001 0.0000 1.0000
vn -0.0001 0.0000 1.0000
vn 0.0000 0.0000 -1.0000
vn 0.0001 -0.0000 -1.0000
vn 0.9998 0.0219 0.0000
vn 0.9999 -0.0142 0.0000
vn 0.9984 -0.0560 0.0000
vn 0.9939 -0.1099 0.0000
vn 0.9869 -0.1610 0.0000
vn 0.9778 -0.2092 0.0000
vn 0.9671 -0.2544 0.0000
vn 0.9550 -0.2966 0.0000
vn 0.9419 -0.3359 0.0000
vn 0.9281 -0.3724 0.0000
vn 0.9138 -0.4061 0.0000
vn 0.8993 -0.4373 0.0000
vn 0.8847 -0.4662 0.0000
vn 0.8726 -0.4884 0.0000
vn 0.8651 0.5015 0.0000
vn 0.7071 0.7071 0.0000
vn 0.7071 -0.7071 0.0000
vn -0.7071 -0.7071 0.0000
vn -0.9668 0.2557 0.0000
vn -0.9998 0.0219 0.0000
vn -0.9956 0.0932 0.0000
vn -0.9799 0.1996 0.0000
vn -0.9473 0.3203 0.0000
vn -0.8923 0.4514 0.0000
vn -0.8112 0.5848 0.0000
vn -0.7046 0.7095 0.0000
vn -0.5795 0.8150 0.0000
vn -0.4464 0.8948 0.0000
vn -0.3163 0.9486 0.0000
vn -0.1969 0.9804 0.0000
vn -0.0919 0.9958 0.0000
vn -0.0215 0.9998 0.0000
vn 0.0215 0.9998 0.0000
vn 0.0919 0.9958 0.0000
vn 0.1969 0.9804 0.0000
vn 0.3163 0.9486 0.0000
vn 0.4464 0.8948 0.0000
vn 0.5795 0.8150 0.0000
vn 0.7046 0.7095 0.0000
vn 0.8112 0.5848 0.0000
vn 0.8923 0.4513 0.0000
vn 0.9473 0.3203 0.0000
vn 0.9799 0.1996 0.0000
vn 0.9956 0.0932 0.0000
usemtl None
s off
f 36//1 38//1 37//1
f 36//1 39//1 38//1
f 36//1 40//1 39//1
f 35//1 40//1 36//1
f 35//1 41//1 40//1
f 34//1 41//1 35//1
f 34//1 42//1 41//1
f 33//1 42//1 34//1
f 33//1 43//1 42//1
f 32//1 43//1 33//1
f 32//1 44//1 43//1
f 31//1 44//1 32//1
f 31//1 45//1 44//1
f 30//1 45//1 31//1
f 30//1 46//1 45//1
f 29//1 46//1 30//1
f 29//1 47//1 46//1
f 28//1 47//1 29//1
f 28//1 48//1 47//1
f 27//1 48//1 28//1
f 27//1 49//1 48//1
f 26//1 49//1 27//1
f 26//1 1//1 49//1
f 25//1 1//1 26//1
f 24//1 22//1 25//1
f 22//1 1//1 25//1
f 22//1 21//1 1//1
f 21//1 2//1 1//1
f 24//1 23//1 22//1
f 20//1 2//1 21//1
f 20//1 3//1 2//1
f 20//1 4//1 3//1
f 20//1 5//1 4//1
f 20//1 6//1 5//1
f 19//1 6//1 20//1
f 19//1 7//1 6//1
f 19//1 8//1 7//1
f 19//1 9//1 8//1
f 19//1 10//1 9//1
f 19//1 11//1 10//1
f 19//2 12//2 11//2
f 19//3 13//3 12//3
f 19//1 14//1 13//1
f 19//1 15//1 14//1
f 19//1 16//1 15//1
f 19//1 17//1 16//1
f 18//1 17//1 19//1
f 87//4 85//4 86//4
f 88//4 85//4 87//4
f 89//4 85//4 88//4
f 89//4 84//4 85//4
f 90//4 84//4 89//4
f 90//4 83//4 84//4
f 91//4 83//4 90//4
f 91//4 82//4 83//4
f 92//4 82//4 91//4
f 92//4 81//4 82//4
f 93//4 81//4 92//4
f 93//4 80//4 81//4
f 94//4 80//4 93//4
f 94//4 79//4 80//4
f 95//4 79//4 94//4
f 95//4 78//4 79//4
f 96//4 78//4 95//4
f 96//4 77//4 78//4
f 97//4 77//4 96//4
f 97//4 76//4 77//4
f 98//4 76//4 97//4
f 98//4 75//4 76//4
f 50//4 75//4 98//4
f 50//4 74//4 75//4
f 71//4 73//4 74//4
f 50//4 71//4 74//4
f 70//4 71//4 50//4
f 51//4 70//4 50//4
f 72//4 73//4 71//4
f 51//4 69//4 70//4
f 52//4 69//4 51//4
f 53//4 69//4 52//4
f 54//4 69//4 53//4
f 55//4 69//4 54//4
f 55//4 68//4 69//4
f 56//4 68//4 55//4
f 57//5 68//5 56//5
f 58//4 68//4 57//4
f 59//4 68//4 58//4
f 60//4 68//4 59//4
f 61//4 68//4 60//4
f 62//4 68//4 61//4
f 63//4 68//4 62//4
f 64//4 68//4 63//4
f 65//4 68//4 64//4
f 66//4 68//4 65//4
f 66//4 67//4 68//4
s 1
f 100//6 102//7 101//7 99//6
f 102//7 104//8 103//8 101//7
f 104//8 106//9 105//9 103//8
f 106//9 108//10 107//10 105//9
f 108//10 110//11 109//11 107//10
f 110//11 112//12 111//12 109//11
f 112//12 114//13 113//13 111//12
f 114//13 116//14 115//14 113//13
f 116//14 118//15 117//15 115//14
f 118//15 120//16 119//16 117//15
f 120//16 122//17 121//17 119//16
f 122//17 124//18 123//18 121//17
f 124//18 126//19 125//19 123//18
f 126//19 128//20 127//20 125//19
f 128//20 130//21 129//21 127//20
f 130//21 132//22 131//22 129//21
f 132//22 134//23 133//23 131//22
f 134//23 136//24 135//24 133//23
f 136//24 138//24 137//24 135//24
f 138//24 140//23 139//23 137//24
f 140//23 142//22 141//22 139//23
f 142//22 144//22 143//22 141//22
f 144//22 146//23 145//23 143//22
f 146//23 148//25 147//25 145//23
f 148//25 150//26 149//26 147//25
f 150//26 152//27 151//27 149//26
f 152//27 154//28 153//28 151//27
f 154//28 156//29 155//29 153//28
f 156//29 158//30 157//30 155//29
f 158//30 160//31 159//31 157//30
f 160//31 162//32 161//32 159//31
f 162//32 164//33 163//33 161//32
f 164//33 166//34 165//34 163//33
f 166//34 168//35 167//35 165//34
f 168//35 170//36 169//36 167//35
f 170//36 172//37 171//37 169//36
f 172//37 174//38 173//38 171//37
f 174//38 176//39 175//39 173//38
f 176//39 178//40 177//40 175//39
f 178//40 180//41 179//41 177//40
f 180//41 182//42 181//42 179//41
f 182//42 184//43 183//43 181//42
f 184//43 186//44 185//44 183//43
f 186//44 188//45 187//45 185//44
f 188//45 190//46 189//46 187//45
f 190//46 192//47 191//47 189//46
f 192//47 194//48 193//48 191//47
f 194//48 196//49 195//49 193//48
f 196//49 100//6 99//6 195//49
