# Blender v2.79 (sub 0) OBJ File: 'numeros3d.blend'
# www.blender.org
mtllib 3.mtl
o Text_Text.005
v 1.585530 0.771974 0.834915
v 1.585530 0.592937 0.834915
v 1.585130 0.583622 0.834915
v 1.583932 0.575117 0.834915
v 1.581936 0.567422 0.834915
v 1.579140 0.560537 0.834915
v 1.575546 0.554462 0.834915
v 1.571154 0.549197 0.834915
v 1.565962 0.544742 0.834915
v 1.559972 0.541097 0.834915
v 1.553184 0.538262 0.834915
v 1.545596 0.536237 0.834915
v 1.537210 0.535022 0.834915
v 1.528026 0.534617 0.834915
v 1.332267 0.534617 0.834915
v 1.323213 0.535022 0.834915
v 1.314945 0.536237 0.834915
v 1.307466 0.538262 0.834915
v 1.300773 0.541097 0.834915
v 1.294868 0.544742 0.834915
v 1.289751 0.549197 0.834915
v 1.285420 0.554462 0.834915
v 1.281877 0.560537 0.834915
v 1.279122 0.567422 0.834915
v 1.277153 0.575117 0.834915
v 1.275972 0.583622 0.834915
v 1.275578 0.592937 0.834915
v 1.275578 0.740163 0.834915
v 1.369380 0.740163 0.834915
v 1.369380 0.616591 0.834915
v 1.492136 0.616591 0.834915
v 1.492136 0.776868 0.834915
v 1.375089 0.857211 0.834915
v 1.375089 0.877194 0.834915
v 1.492136 0.956313 0.834915
v 1.492136 1.090898 0.834915
v 1.369380 1.090898 0.834915
v 1.369380 0.974666 0.834915
v 1.275578 0.974666 0.834915
v 1.275578 1.114144 0.834915
v 1.275981 1.123524 0.834915
v 1.277187 1.132088 0.834915
v 1.279198 1.139837 0.834915
v 1.282013 1.146770 0.834915
v 1.285633 1.152888 0.834915
v 1.290056 1.158190 0.834915
v 1.295285 1.162676 0.834915
v 1.301317 1.166346 0.834915
v 1.308154 1.169201 0.834915
v 1.315795 1.171240 0.834915
v 1.324241 1.172464 0.834915
v 1.333490 1.172871 0.834915
v 1.528026 1.172871 0.834915
v 1.537210 1.172464 0.834915
v 1.545596 1.171240 0.834915
v 1.553184 1.169201 0.834915
v 1.559972 1.166346 0.834915
v 1.565962 1.162676 0.834915
v 1.571154 1.158190 0.834915
v 1.575546 1.152888 0.834915
v 1.579140 1.146770 0.834915
v 1.581936 1.139837 0.834915
v 1.583932 1.132088 0.834915
v 1.585130 1.123524 0.834915
v 1.585530 1.114144 0.834915
v 1.585530 0.964062 0.834915
v 1.585309 0.957860 0.834915
v 1.584646 0.951895 0.834915
v 1.583541 0.946169 0.834915
v 1.581995 0.940680 0.834915
v 1.580007 0.935429 0.834915
v 1.577577 0.930416 0.834915
v 1.574705 0.925641 0.834915
v 1.571391 0.921104 0.834915
v 1.567636 0.916805 0.834915
v 1.563439 0.912744 0.834915
v 1.558800 0.908920 0.834915
v 1.553719 0.905335 0.834915
v 1.494583 0.866999 0.834915
v 1.554534 0.829478 0.834915
v 1.559485 0.826151 0.834915
v 1.564005 0.822556 0.834915
v 1.568095 0.818696 0.834915
v 1.571754 0.814570 0.834915
v 1.574983 0.810177 0.834915
v 1.577781 0.805518 0.834915
v 1.580148 0.800593 0.834915
v 1.582086 0.795402 0.834915
v 1.583592 0.789944 0.834915
v 1.584669 0.784220 0.834915
v 1.585314 0.778230 0.834915
v 1.585530 0.771974 0.734915
v 1.585530 0.592937 0.734915
v 1.585130 0.583622 0.734915
v 1.583932 0.575117 0.734915
v 1.581936 0.567422 0.734915
v 1.579140 0.560537 0.734915
v 1.575546 0.554462 0.734915
v 1.571154 0.549197 0.734915
v 1.565962 0.544742 0.734915
v 1.559972 0.541097 0.734915
v 1.553184 0.538262 0.734915
v 1.545596 0.536237 0.734915
v 1.537210 0.535022 0.734915
v 1.528026 0.534617 0.734915
v 1.332267 0.534617 0.734915
v 1.323213 0.535022 0.734915
v 1.314945 0.536237 0.734915
v 1.307466 0.538262 0.734915
v 1.300773 0.541097 0.734915
v 1.294868 0.544742 0.734915
v 1.289751 0.549197 0.734915
v 1.285420 0.554462 0.734915
v 1.281877 0.560537 0.734915
v 1.279122 0.567422 0.734915
v 1.277153 0.575117 0.734915
v 1.275972 0.583622 0.734915
v 1.275578 0.592937 0.734915
v 1.275578 0.740163 0.734915
v 1.369380 0.740163 0.734915
v 1.369380 0.616591 0.734915
v 1.492136 0.616591 0.734915
v 1.492136 0.776868 0.734915
v 1.375089 0.857211 0.734915
v 1.375089 0.877194 0.734915
v 1.492136 0.956313 0.734915
v 1.492136 1.090898 0.734915
v 1.369380 1.090898 0.734915
v 1.369380 0.974666 0.734915
v 1.275578 0.974666 0.734915
v 1.275578 1.114144 0.734915
v 1.275981 1.123524 0.734915
v 1.277187 1.132088 0.734915
v 1.279198 1.139837 0.734915
v 1.282013 1.146770 0.734915
v 1.285633 1.152888 0.734915
v 1.290056 1.158190 0.734915
v 1.295285 1.162676 0.734915
v 1.301317 1.166346 0.734915
v 1.308154 1.169201 0.734915
v 1.315795 1.171240 0.734915
v 1.324241 1.172464 0.734915
v 1.333490 1.172871 0.734915
v 1.528026 1.172871 0.734915
v 1.537210 1.172464 0.734915
v 1.545596 1.171240 0.734915
v 1.553184 1.169201 0.734915
v 1.559972 1.166346 0.734915
v 1.565962 1.162676 0.734915
v 1.571154 1.158190 0.734915
v 1.575546 1.152888 0.734915
v 1.579140 1.146770 0.734915
v 1.581936 1.139837 0.734915
v 1.583932 1.132088 0.734915
v 1.585130 1.123524 0.734915
v 1.585530 1.114144 0.734915
v 1.585530 0.964062 0.734915
v 1.585309 0.957860 0.734915
v 1.584646 0.951895 0.734915
v 1.583541 0.946169 0.734915
v 1.581995 0.940680 0.734915
v 1.580007 0.935429 0.734915
v 1.577577 0.930416 0.734915
v 1.574705 0.925641 0.734915
v 1.571391 0.921104 0.734915
v 1.567636 0.916805 0.734915
v 1.563439 0.912744 0.734915
v 1.558800 0.908920 0.734915
v 1.553719 0.905335 0.734915
v 1.494583 0.866999 0.734915
v 1.554534 0.829478 0.734915
v 1.559485 0.826151 0.734915
v 1.564005 0.822556 0.734915
v 1.568095 0.818696 0.734915
v 1.571754 0.814570 0.734915
v 1.574983 0.810177 0.734915
v 1.577781 0.805518 0.734915
v 1.580148 0.800593 0.734915
v 1.582086 0.795402 0.734915
v 1.583592 0.789944 0.734915
v 1.584669 0.784220 0.734915
v 1.585314 0.778230 0.734915
v 1.585530 0.771974 0.734915
v 1.585530 0.771974 0.834915
v 1.585530 0.592937 0.734915
v 1.585530 0.592937 0.834915
v 1.585130 0.583622 0.734915
v 1.585130 0.583622 0.834915
v 1.583932 0.575117 0.734915
v 1.583932 0.575117 0.834915
v 1.581936 0.567422 0.734915
v 1.581936 0.567422 0.834915
v 1.579140 0.560537 0.734915
v 1.579140 0.560537 0.834915
v 1.575546 0.554462 0.734915
v 1.575546 0.554462 0.834915
v 1.571154 0.549197 0.734915
v 1.571154 0.549197 0.834915
v 1.565962 0.544742 0.734915
v 1.565962 0.544742 0.834915
v 1.559972 0.541097 0.734915
v 1.559972 0.541097 0.834915
v 1.553184 0.538262 0.734915
v 1.553184 0.538262 0.834915
v 1.545596 0.536237 0.734915
v 1.545596 0.536237 0.834915
v 1.537210 0.535022 0.734915
v 1.537210 0.535022 0.834915
v 1.528026 0.534617 0.734915
v 1.528026 0.534617 0.834915
v 1.332267 0.534617 0.734915
v 1.332267 0.534617 0.834915
v 1.323213 0.535022 0.734915
v 1.323213 0.535022 0.834915
v 1.314945 0.536237 0.734915
v 1.314945 0.536237 0.834915
v 1.307466 0.538262 0.734915
v 1.307466 0.538262 0.834915
v 1.300773 0.541097 0.734915
v 1.300773 0.541097 0.834915
v 1.294868 0.544742 0.734915
v 1.294868 0.544742 0.834915
v 1.289751 0.549197 0.734915
v 1.289751 0.549197 0.834915
v 1.285420 0.554462 0.734915
v 1.285420 0.554462 0.834915
v 1.281877 0.560537 0.734915
v 1.281877 0.560537 0.834915
v 1.279122 0.567422 0.734915
v 1.279122 0.567422 0.834915
v 1.277153 0.575117 0.734915
v 1.277153 0.575117 0.834915
v 1.275972 0.583622 0.734915
v 1.275972 0.583622 0.834915
v 1.275578 0.592937 0.734915
v 1.275578 0.592937 0.834915
v 1.275578 0.740163 0.734915
v 1.275578 0.740163 0.834915
v 1.369380 0.740163 0.734915
v 1.369380 0.740163 0.834915
v 1.369380 0.616591 0.734915
v 1.369380 0.616591 0.834915
v 1.492136 0.616591 0.734915
v 1.492136 0.616591 0.834915
v 1.492136 0.776868 0.734915
v 1.492136 0.776868 0.834915
v 1.375089 0.857211 0.734915
v 1.375089 0.857211 0.834915
v 1.375089 0.877194 0.734915
v 1.375089 0.877194 0.834915
v 1.492136 0.956313 0.734915
v 1.492136 0.956313 0.834915
v 1.492136 1.090898 0.734915
v 1.492136 1.090898 0.834915
v 1.369380 1.090898 0.734915
v 1.369380 1.090898 0.834915
v 1.369380 0.974666 0.734915
v 1.369380 0.974666 0.834915
v 1.275578 0.974666 0.734915
v 1.275578 0.974666 0.834915
v 1.275578 1.114144 0.734915
v 1.275578 1.114144 0.834915
v 1.275981 1.123524 0.734915
v 1.275981 1.123524 0.834915
v 1.277187 1.132088 0.734915
v 1.277187 1.132088 0.834915
v 1.279198 1.139837 0.734915
v 1.279198 1.139837 0.834915
v 1.282013 1.146770 0.734915
v 1.282013 1.146770 0.834915
v 1.285633 1.152888 0.734915
v 1.285633 1.152888 0.834915
v 1.290056 1.158190 0.734915
v 1.290056 1.158190 0.834915
v 1.295285 1.162676 0.734915
v 1.295285 1.162676 0.834915
v 1.301317 1.166346 0.734915
v 1.301317 1.166346 0.834915
v 1.308154 1.169201 0.734915
v 1.308154 1.169201 0.834915
v 1.315795 1.171240 0.734915
v 1.315795 1.171240 0.834915
v 1.324241 1.172464 0.734915
v 1.324241 1.172464 0.834915
v 1.333490 1.172871 0.734915
v 1.333490 1.172871 0.834915
v 1.528026 1.172871 0.734915
v 1.528026 1.172871 0.834915
v 1.537210 1.172464 0.734915
v 1.537210 1.172464 0.834915
v 1.545596 1.171240 0.734915
v 1.545596 1.171240 0.834915
v 1.553184 1.169201 0.734915
v 1.553184 1.169201 0.834915
v 1.559972 1.166346 0.734915
v 1.559972 1.166346 0.834915
v 1.565962 1.162676 0.734915
v 1.565962 1.162676 0.834915
v 1.571154 1.158190 0.734915
v 1.571154 1.158190 0.834915
v 1.575546 1.152888 0.734915
v 1.575546 1.152888 0.834915
v 1.579140 1.146770 0.734915
v 1.579140 1.146770 0.834915
v 1.581936 1.139837 0.734915
v 1.581936 1.139837 0.834915
v 1.583932 1.132088 0.734915
v 1.583932 1.132088 0.834915
v 1.585130 1.123524 0.734915
v 1.585130 1.123524 0.834915
v 1.585530 1.114144 0.734915
v 1.585530 1.114144 0.834915
v 1.585530 0.964062 0.734915
v 1.585530 0.964062 0.834915
v 1.585309 0.957860 0.734915
v 1.585309 0.957860 0.834915
v 1.584646 0.951895 0.734915
v 1.584646 0.951895 0.834915
v 1.583541 0.946169 0.734915
v 1.583541 0.946169 0.834915
v 1.581995 0.940680 0.734915
v 1.581995 0.940680 0.834915
v 1.580007 0.935429 0.734915
v 1.580007 0.935429 0.834915
v 1.577577 0.930416 0.734915
v 1.577577 0.930416 0.834915
v 1.574705 0.925641 0.734915
v 1.574705 0.925641 0.834915
v 1.571391 0.921104 0.734915
v 1.571391 0.921104 0.834915
v 1.567636 0.916805 0.734915
v 1.567636 0.916805 0.834915
v 1.563439 0.912744 0.734915
v 1.563439 0.912744 0.834915
v 1.558800 0.908920 0.734915
v 1.558800 0.908920 0.834915
v 1.553719 0.905335 0.734915
v 1.553719 0.905335 0.834915
v 1.494583 0.866999 0.734915
v 1.494583 0.866999 0.834915
v 1.554534 0.829478 0.734915
v 1.554534 0.829478 0.834915
v 1.559485 0.826151 0.734915
v 1.559485 0.826151 0.834915
v 1.564005 0.822556 0.734915
v 1.564005 0.822556 0.834915
v 1.568095 0.818696 0.734915
v 1.568095 0.818696 0.834915
v 1.571754 0.814570 0.734915
v 1.571754 0.814570 0.834915
v 1.574983 0.810177 0.734915
v 1.574983 0.810177 0.834915
v 1.577781 0.805518 0.734915
v 1.577781 0.805518 0.834915
v 1.580148 0.800593 0.734915
v 1.580148 0.800593 0.834915
v 1.582086 0.795402 0.734915
v 1.582086 0.795402 0.834915
v 1.583592 0.789944 0.734915
v 1.583592 0.789944 0.834915
v 1.584669 0.784220 0.734915
v 1.584669 0.784220 0.834915
v 1.585314 0.778230 0.734915
v 1.585314 0.778230 0.834915
vn 0.0000 0.0000 1.0000
vn 0.0000 0.0000 -1.0000
vn 0.9998 0.0172 0.0000
vn 0.9998 -0.0214 0.0000
vn 0.9958 -0.0913 0.0000
vn 0.9807 -0.1956 0.0000
vn 0.9493 -0.3143 0.0000
vn 0.8961 -0.4439 0.0000
vn 0.8169 -0.5768 0.0000
vn 0.7120 -0.7022 0.0000
vn 0.5875 -0.8092 0.0000
vn 0.4539 -0.8910 0.0000
vn 0.3223 -0.9466 0.0000
vn 0.2010 -0.9796 0.0000
vn 0.0938 -0.9956 0.0000
vn 0.0220 -0.9998 0.0000
vn -0.0223 -0.9997 0.0000
vn -0.0952 -0.9955 0.0000
vn -0.2037 -0.9790 0.0000
vn -0.3264 -0.9452 0.0000
vn -0.4590 -0.8884 0.0000
vn -0.5929 -0.8053 0.0000
vn -0.7169 -0.6971 0.0000
vn -0.8207 -0.5713 0.0000
vn -0.8985 -0.4389 0.0000
vn -0.9506 -0.3103 0.0000
vn -0.9812 -0.1930 0.0000
vn -0.9959 -0.0900 0.0000
vn -0.9998 -0.0211 0.0000
vn -0.7071 0.7071 0.0000
vn 0.7071 0.7071 0.0000
vn -0.8848 -0.4659 0.0000
vn -0.8832 0.4690 0.0000
vn -0.7071 -0.7071 0.0000
vn 0.7071 -0.7071 0.0000
vn -0.9998 0.0214 0.0000
vn -0.9958 0.0913 0.0000
vn -0.9807 0.1957 0.0000
vn -0.9493 0.3144 0.0000
vn -0.8961 0.4439 0.0000
vn -0.8169 0.5768 0.0000
vn -0.7119 0.7022 0.0000
vn -0.5874 0.8093 0.0000
vn -0.4538 0.8910 0.0000
vn -0.3223 0.9466 0.0000
vn -0.2009 0.9796 0.0000
vn -0.0938 0.9956 0.0000
vn -0.0220 0.9998 0.0000
vn 0.0222 0.9997 0.0000
vn 0.0945 0.9955 0.0000
vn 0.2023 0.9793 0.0000
vn 0.3243 0.9459 0.0000
vn 0.4563 0.8898 0.0000
vn 0.5901 0.8073 0.0000
vn 0.7144 0.6997 0.0000
vn 0.8188 0.5741 0.0000
vn 0.8973 0.4415 0.0000
vn 0.9499 0.3124 0.0000
vn 0.9809 0.1943 0.0000
vn 0.9959 0.0906 0.0000
vn 0.9998 0.0213 0.0000
vn 0.9998 -0.0178 0.0000
vn 0.9973 -0.0731 0.0000
vn 0.9887 -0.1500 0.0000
vn 0.9731 -0.2305 0.0000
vn 0.9498 -0.3129 0.0000
vn 0.9184 -0.3956 0.0000
vn 0.8793 -0.4763 0.0000
vn 0.8331 -0.5531 0.0000
vn 0.7811 -0.6244 0.0000
vn 0.7249 -0.6889 0.0000
vn 0.6662 -0.7458 0.0000
vn 0.6067 -0.7949 0.0000
vn 0.5604 -0.8282 0.0000
vn 0.9999 0.0080 0.0000
vn 0.5442 0.8389 0.0000
vn 0.5906 0.8070 0.0000
vn 0.6550 0.7556 0.0000
vn 0.7180 0.6960 0.0000
vn 0.7778 0.6285 0.0000
vn 0.8324 0.5541 0.0000
vn 0.8802 0.4746 0.0000
vn 0.9200 0.3918 0.0000
vn 0.9513 0.3081 0.0000
vn 0.9742 0.2257 0.0000
vn 0.9893 0.1461 0.0000
vn 0.9975 0.0708 0.0000
usemtl None
s off
f 51//1 53//1 52//1
f 51//1 54//1 53//1
f 51//1 55//1 54//1
f 50//1 55//1 51//1
f 50//1 56//1 55//1
f 49//1 56//1 50//1
f 49//1 57//1 56//1
f 48//1 57//1 49//1
f 48//1 58//1 57//1
f 47//1 58//1 48//1
f 47//1 59//1 58//1
f 46//1 59//1 47//1
f 46//1 60//1 59//1
f 45//1 60//1 46//1
f 45//1 61//1 60//1
f 44//1 61//1 45//1
f 44//1 62//1 61//1
f 43//1 62//1 44//1
f 43//1 63//1 62//1
f 42//1 63//1 43//1
f 42//1 64//1 63//1
f 41//1 64//1 42//1
f 41//1 65//1 64//1
f 40//1 65//1 41//1
f 39//1 37//1 40//1
f 37//1 65//1 40//1
f 37//1 36//1 65//1
f 36//1 66//1 65//1
f 39//1 38//1 37//1
f 35//1 66//1 36//1
f 35//1 67//1 66//1
f 35//1 68//1 67//1
f 34//1 68//1 35//1
f 34//1 69//1 68//1
f 34//1 70//1 69//1
f 34//1 71//1 70//1
f 34//1 72//1 71//1
f 34//1 73//1 72//1
f 34//1 74//1 73//1
f 34//1 75//1 74//1
f 34//1 76//1 75//1
f 34//1 77//1 76//1
f 34//1 78//1 77//1
f 34//1 79//1 78//1
f 33//1 79//1 34//1
f 33//1 80//1 79//1
f 32//1 80//1 33//1
f 32//1 81//1 80//1
f 32//1 82//1 81//1
f 32//1 83//1 82//1
f 32//1 84//1 83//1
f 32//1 85//1 84//1
f 32//1 86//1 85//1
f 32//1 87//1 86//1
f 32//1 88//1 87//1
f 32//1 89//1 88//1
f 32//1 90//1 89//1
f 32//1 91//1 90//1
f 32//1 1//1 91//1
f 31//1 1//1 32//1
f 31//1 2//1 1//1
f 27//1 29//1 28//1
f 27//1 30//1 29//1
f 27//1 31//1 30//1
f 27//1 2//1 31//1
f 26//1 2//1 27//1
f 26//1 3//1 2//1
f 25//1 3//1 26//1
f 25//1 4//1 3//1
f 24//1 4//1 25//1
f 24//1 5//1 4//1
f 23//1 5//1 24//1
f 23//1 6//1 5//1
f 22//1 6//1 23//1
f 22//1 7//1 6//1
f 21//1 7//1 22//1
f 21//1 8//1 7//1
f 21//1 9//1 8//1
f 20//1 9//1 21//1
f 20//1 10//1 9//1
f 19//1 10//1 20//1
f 19//1 11//1 10//1
f 18//1 11//1 19//1
f 18//1 12//1 11//1
f 17//1 12//1 18//1
f 17//1 13//1 12//1
f 16//1 13//1 17//1
f 16//1 14//1 13//1
f 15//1 14//1 16//1
f 144//2 142//2 143//2
f 145//2 142//2 144//2
f 146//2 142//2 145//2
f 146//2 141//2 142//2
f 147//2 141//2 146//2
f 147//2 140//2 141//2
f 148//2 140//2 147//2
f 148//2 139//2 140//2
f 149//2 139//2 148//2
f 149//2 138//2 139//2
f 150//2 138//2 149//2
f 150//2 137//2 138//2
f 151//2 137//2 150//2
f 151//2 136//2 137//2
f 152//2 136//2 151//2
f 152//2 135//2 136//2
f 153//2 135//2 152//2
f 153//2 134//2 135//2
f 154//2 134//2 153//2
f 154//2 133//2 134//2
f 155//2 133//2 154//2
f 155//2 132//2 133//2
f 156//2 132//2 155//2
f 156//2 131//2 132//2
f 128//2 130//2 131//2
f 156//2 128//2 131//2
f 127//2 128//2 156//2
f 157//2 127//2 156//2
f 129//2 130//2 128//2
f 157//2 126//2 127//2
f 158//2 126//2 157//2
f 159//2 126//2 158//2
f 159//2 125//2 126//2
f 160//2 125//2 159//2
f 161//2 125//2 160//2
f 162//2 125//2 161//2
f 163//2 125//2 162//2
f 164//2 125//2 163//2
f 165//2 125//2 164//2
f 166//2 125//2 165//2
f 167//2 125//2 166//2
f 168//2 125//2 167//2
f 169//2 125//2 168//2
f 170//2 125//2 169//2
f 170//2 124//2 125//2
f 171//2 124//2 170//2
f 171//2 123//2 124//2
f 172//2 123//2 171//2
f 173//2 123//2 172//2
f 174//2 123//2 173//2
f 175//2 123//2 174//2
f 176//2 123//2 175//2
f 177//2 123//2 176//2
f 178//2 123//2 177//2
f 179//2 123//2 178//2
f 180//2 123//2 179//2
f 181//2 123//2 180//2
f 182//2 123//2 181//2
f 92//2 123//2 182//2
f 92//2 122//2 123//2
f 93//2 122//2 92//2
f 120//2 118//2 119//2
f 121//2 118//2 120//2
f 122//2 118//2 121//2
f 93//2 118//2 122//2
f 93//2 117//2 118//2
f 94//2 117//2 93//2
f 94//2 116//2 117//2
f 95//2 116//2 94//2
f 95//2 115//2 116//2
f 96//2 115//2 95//2
f 96//2 114//2 115//2
f 97//2 114//2 96//2
f 97//2 113//2 114//2
f 98//2 113//2 97//2
f 98//2 112//2 113//2
f 99//2 112//2 98//2
f 100//2 112//2 99//2
f 100//2 111//2 112//2
f 101//2 111//2 100//2
f 101//2 110//2 111//2
f 102//2 110//2 101//2
f 102//2 109//2 110//2
f 103//2 109//2 102//2
f 103//2 108//2 109//2
f 104//2 108//2 103//2
f 104//2 107//2 108//2
f 105//2 107//2 104//2
f 105//2 106//2 107//2
s 1
f 184//3 186//4 185//4 183//3
f 186//4 188//5 187//5 185//4
f 188//5 190//6 189//6 187//5
f 190//6 192//7 191//7 189//6
f 192//7 194//8 193//8 191//7
f 194//8 196//9 195//9 193//8
f 196//9 198//10 197//10 195//9
f 198//10 200//11 199//11 197//10
f 200//11 202//12 201//12 199//11
f 202//12 204//13 203//13 201//12
f 204//13 206//14 205//14 203//13
f 206//14 208//15 207//15 205//14
f 208//15 210//16 209//16 207//15
f 210//16 212//17 211//17 209//16
f 212//17 214//18 213//18 211//17
f 214//18 216//19 215//19 213//18
f 216//19 218//20 217//20 215//19
f 218//20 220//21 219//21 217//20
f 220//21 222//22 221//22 219//21
f 222//22 224//23 223//23 221//22
f 224//23 226//24 225//24 223//23
f 226//24 228//25 227//25 225//24
f 228//25 230//26 229//26 227//25
f 230//26 232//27 231//27 229//26
f 232//27 234//28 233//28 231//27
f 234//28 236//29 235//29 233//28
f 236//29 238//30 237//30 235//29
f 238//30 240//31 239//31 237//30
f 240//31 242//31 241//31 239//31
f 242//31 244//30 243//30 241//31
f 244//30 246//32 245//32 243//30
f 246//32 248//32 247//32 245//32
f 248//32 250//33 249//33 247//32
f 250//33 252//33 251//33 249//33
f 252//33 254//34 253//34 251//33
f 254//34 256//35 255//35 253//34
f 256//35 258//35 257//35 255//35
f 258//35 260//34 259//34 257//35
f 260//34 262//36 261//36 259//34
f 262//36 264//37 263//37 261//36
f 264//37 266//38 265//38 263//37
f 266//38 268//39 267//39 265//38
f 268//39 270//40 269//40 267//39
f 270//40 272//41 271//41 269//40
f 272//41 274//42 273//42 271//41
f 274//42 276//43 275//43 273//42
f 276//43 278//44 277//44 275//43
f 278//44 280//45 279//45 277//44
f 280//45 282//46 281//46 279//45
f 282//46 284//47 283//47 281//46
f 284//47 286//48 285//48 283//47
f 286//48 288//49 287//49 285//48
f 288//49 290//50 289//50 287//49
f 290//50 292//51 291//51 289//50
f 292//51 294//52 293//52 291//51
f 294//52 296//53 295//53 293//52
f 296//53 298//54 297//54 295//53
f 298//54 300//55 299//55 297//54
f 300//55 302//56 301//56 299//55
f 302//56 304//57 303//57 301//56
f 304//57 306//58 305//58 303//57
f 306//58 308//59 307//59 305//58
f 308//59 310//60 309//60 307//59
f 310//60 312//61 311//61 309//60
f 312//61 314//62 313//62 311//61
f 314//62 316//63 315//63 313//62
f 316//63 318//64 317//64 315//63
f 318//64 320//65 319//65 317//64
f 320//65 322//66 321//66 319//65
f 322//66 324//67 323//67 321//66
f 324//67 326//68 325//68 323//67
f 326//68 328//69 327//69 325//68
f 328//69 330//70 329//70 327//69
f 330//70 332//71 331//71 329//70
f 332//71 334//72 333//72 331//71
f 334//72 336//73 335//73 333//72
f 336//73 338//74 337//74 335//73
f 338//74 340//75 339//75 337//74
f 340//75 342//76 341//76 339//75
f 342//76 344//77 343//77 341//76
f 344//77 346//78 345//78 343//77
f 346//78 348//79 347//79 345//78
f 348//79 350//80 349//80 347//79
f 350//80 352//81 351//81 349//80
f 352//81 354//82 353//82 351//81
f 354//82 356//83 355//83 353//82
f 356//83 358//84 357//84 355//83
f 358//84 360//85 359//85 357//84
f 360//85 362//86 361//86 359//85
f 362//86 364//87 363//87 361//86
f 364//87 184//3 183//3 363//87
