# Blender v2.79 (sub 0) OBJ File: 'numeros3d.blend'
# www.blender.org
mtllib 5.mtl
o Text_Text.005
v 1.580636 0.886167 0.834915
v 1.580636 0.592937 0.834915
v 1.580233 0.583622 0.834915
v 1.579027 0.575117 0.834915
v 1.577016 0.567422 0.834915
v 1.574201 0.560537 0.834915
v 1.570581 0.554462 0.834915
v 1.566158 0.549197 0.834915
v 1.560930 0.544742 0.834915
v 1.554897 0.541097 0.834915
v 1.548060 0.538262 0.834915
v 1.540419 0.536237 0.834915
v 1.531973 0.535022 0.834915
v 1.522724 0.534617 0.834915
v 1.331451 0.534617 0.834915
v 1.322397 0.535022 0.834915
v 1.314130 0.536237 0.834915
v 1.306650 0.538262 0.834915
v 1.299958 0.541097 0.834915
v 1.294053 0.544742 0.834915
v 1.288935 0.549197 0.834915
v 1.284605 0.554462 0.834915
v 1.281062 0.560537 0.834915
v 1.278306 0.567422 0.834915
v 1.276338 0.575117 0.834915
v 1.275156 0.583622 0.834915
v 1.274763 0.592937 0.834915
v 1.274763 0.740163 0.834915
v 1.368564 0.740163 0.834915
v 1.368564 0.616591 0.834915
v 1.486835 0.616591 0.834915
v 1.486835 0.862105 0.834915
v 1.274763 0.862105 0.834915
v 1.284959 1.172871 0.834915
v 1.576149 1.172871 0.834915
v 1.576149 1.089266 0.834915
v 1.373458 1.089266 0.834915
v 1.367340 0.944079 0.834915
v 1.522724 0.944079 0.834915
v 1.531974 0.943676 0.834915
v 1.540419 0.942470 0.834915
v 1.548060 0.940459 0.834915
v 1.554897 0.937644 0.834915
v 1.560930 0.934024 0.834915
v 1.566158 0.929601 0.834915
v 1.570582 0.924372 0.834915
v 1.574201 0.918340 0.834915
v 1.577016 0.911503 0.834915
v 1.579027 0.903862 0.834915
v 1.580233 0.895416 0.834915
v 1.580636 0.886167 0.734915
v 1.580636 0.592937 0.734915
v 1.580233 0.583622 0.734915
v 1.579027 0.575117 0.734915
v 1.577016 0.567422 0.734915
v 1.574201 0.560537 0.734915
v 1.570581 0.554462 0.734915
v 1.566158 0.549197 0.734915
v 1.560930 0.544742 0.734915
v 1.554897 0.541097 0.734915
v 1.548060 0.538262 0.734915
v 1.540419 0.536237 0.734915
v 1.531973 0.535022 0.734915
v 1.522724 0.534617 0.734915
v 1.331451 0.534617 0.734915
v 1.322397 0.535022 0.734915
v 1.314130 0.536237 0.734915
v 1.306650 0.538262 0.734915
v 1.299958 0.541097 0.734915
v 1.294053 0.544742 0.734915
v 1.288935 0.549197 0.734915
v 1.284605 0.554462 0.734915
v 1.281062 0.560537 0.734915
v 1.278306 0.567422 0.734915
v 1.276338 0.575117 0.734915
v 1.275156 0.583622 0.734915
v 1.274763 0.592937 0.734915
v 1.274763 0.740163 0.734915
v 1.368564 0.740163 0.734915
v 1.368564 0.616591 0.734915
v 1.486835 0.616591 0.734915
v 1.486835 0.862105 0.734915
v 1.274763 0.862105 0.734915
v 1.284959 1.172871 0.734915
v 1.576149 1.172871 0.734915
v 1.576149 1.089266 0.734915
v 1.373458 1.089266 0.734915
v 1.367340 0.944079 0.734915
v 1.522724 0.944079 0.734915
v 1.531974 0.943676 0.734915
v 1.540419 0.942470 0.734915
v 1.548060 0.940459 0.734915
v 1.554897 0.937644 0.734915
v 1.560930 0.934024 0.734915
v 1.566158 0.929601 0.734915
v 1.570582 0.924372 0.734915
v 1.574201 0.918340 0.734915
v 1.577016 0.911503 0.734915
v 1.579027 0.903862 0.734915
v 1.580233 0.895416 0.734915
v 1.580636 0.886167 0.734915
v 1.580636 0.886167 0.834915
v 1.580636 0.592937 0.734915
v 1.580636 0.592937 0.834915
v 1.580233 0.583622 0.734915
v 1.580233 0.583622 0.834915
v 1.579027 0.575117 0.734915
v 1.579027 0.575117 0.834915
v 1.577016 0.567422 0.734915
v 1.577016 0.567422 0.834915
v 1.574201 0.560537 0.734915
v 1.574201 0.560537 0.834915
v 1.570581 0.554462 0.734915
v 1.570581 0.554462 0.834915
v 1.566158 0.549197 0.734915
v 1.566158 0.549197 0.834915
v 1.560930 0.544742 0.734915
v 1.560930 0.544742 0.834915
v 1.554897 0.541097 0.734915
v 1.554897 0.541097 0.834915
v 1.548060 0.538262 0.734915
v 1.548060 0.538262 0.834915
v 1.540419 0.536237 0.734915
v 1.540419 0.536237 0.834915
v 1.531973 0.535022 0.734915
v 1.531973 0.535022 0.834915
v 1.522724 0.534617 0.734915
v 1.522724 0.534617 0.834915
v 1.331451 0.534617 0.734915
v 1.331451 0.534617 0.834915
v 1.322397 0.535022 0.734915
v 1.322397 0.535022 0.834915
v 1.314130 0.536237 0.734915
v 1.314130 0.536237 0.834915
v 1.306650 0.538262 0.734915
v 1.306650 0.538262 0.834915
v 1.299958 0.541097 0.734915
v 1.299958 0.541097 0.834915
v 1.294053 0.544742 0.734915
v 1.294053 0.544742 0.834915
v 1.288935 0.549197 0.734915
v 1.288935 0.549197 0.834915
v 1.284605 0.554462 0.734915
v 1.284605 0.554462 0.834915
v 1.281062 0.560537 0.734915
v 1.281062 0.560537 0.834915
v 1.278306 0.567422 0.734915
v 1.278306 0.567422 0.834915
v 1.276338 0.575117 0.734915
v 1.276338 0.575117 0.834915
v 1.275156 0.583622 0.734915
v 1.275156 0.583622 0.834915
v 1.274763 0.592937 0.734915
v 1.274763 0.592937 0.834915
v 1.274763 0.740163 0.734915
v 1.274763 0.740163 0.834915
v 1.368564 0.740163 0.734915
v 1.368564 0.740163 0.834915
v 1.368564 0.616591 0.734915
v 1.368564 0.616591 0.834915
v 1.486835 0.616591 0.734915
v 1.486835 0.616591 0.834915
v 1.486835 0.862105 0.734915
v 1.486835 0.862105 0.834915
v 1.274763 0.862105 0.734915
v 1.274763 0.862105 0.834915
v 1.284959 1.172871 0.734915
v 1.284959 1.172871 0.834915
v 1.576149 1.172871 0.734915
v 1.576149 1.172871 0.834915
v 1.576149 1.089266 0.734915
v 1.576149 1.089266 0.834915
v 1.373458 1.089266 0.734915
v 1.373458 1.089266 0.834915
v 1.367340 0.944079 0.734915
v 1.367340 0.944079 0.834915
v 1.522724 0.944079 0.734915
v 1.522724 0.944079 0.834915
v 1.531974 0.943676 0.734915
v 1.531974 0.943676 0.834915
v 1.540419 0.942470 0.734915
v 1.540419 0.942470 0.834915
v 1.548060 0.940459 0.734915
v 1.548060 0.940459 0.834915
v 1.554897 0.937644 0.734915
v 1.554897 0.937644 0.834915
v 1.560930 0.934024 0.734915
v 1.560930 0.934024 0.834915
v 1.566158 0.929601 0.734915
v 1.566158 0.929601 0.834915
v 1.570582 0.924372 0.734915
v 1.570582 0.924372 0.834915
v 1.574201 0.918340 0.734915
v 1.574201 0.918340 0.834915
v 1.577016 0.911503 0.734915
v 1.577016 0.911503 0.834915
v 1.579027 0.903862 0.734915
v 1.579027 0.903862 0.834915
v 1.580233 0.895416 0.734915
v 1.580233 0.895416 0.834915
vn -0.0000 0.0000 1.0000
vn 0.0000 0.0000 -1.0000
vn 0.9998 0.0217 0.0000
vn 0.9998 -0.0215 0.0000
vn 0.9958 -0.0919 0.0000
vn 0.9804 -0.1969 0.0000
vn 0.9486 -0.3163 0.0000
vn 0.8948 -0.4464 0.0000
vn 0.8150 -0.5795 0.0000
vn 0.7095 -0.7046 0.0000
vn 0.5848 -0.8112 0.0000
vn 0.4514 -0.8923 0.0000
vn 0.3203 -0.9473 0.0000
vn 0.1996 -0.9799 0.0000
vn 0.0932 -0.9956 0.0000
vn 0.0219 -0.9998 0.0000
vn -0.0223 -0.9997 0.0000
vn -0.0952 -0.9955 0.0000
vn -0.2037 -0.9790 0.0000
vn -0.3264 -0.9452 0.0000
vn -0.4590 -0.8884 0.0000
vn -0.5929 -0.8053 0.0000
vn -0.7169 -0.6971 0.0000
vn -0.8207 -0.5713 0.0000
vn -0.8985 -0.4389 0.0000
vn -0.9506 -0.3103 0.0000
vn -0.9812 -0.1930 0.0000
vn -0.9959 -0.0900 0.0000
vn -0.9998 -0.0211 0.0000
vn -0.7071 0.7071 0.0000
vn 0.7071 0.7071 0.0000
vn -0.7071 -0.7071 0.0000
vn -0.7186 -0.6954 0.0000
vn -0.6954 0.7186 0.0000
vn 0.7071 -0.7071 0.0000
vn 0.6920 -0.7218 0.0000
vn 0.7218 0.6920 0.0000
vn 0.0217 0.9998 0.0000
vn 0.0925 0.9957 0.0000
vn 0.1983 0.9801 0.0000
vn 0.3183 0.9480 0.0000
vn 0.4489 0.8936 0.0000
vn 0.5821 0.8131 0.0000
vn 0.8131 0.5821 0.0000
vn 0.8936 0.4489 0.0000
vn 0.9480 0.3183 0.0000
vn 0.9801 0.1983 0.0000
vn 0.9957 0.0925 0.0000
usemtl None
s off
f 33//1 37//1 34//1
f 37//1 35//1 34//1
f 37//1 36//1 35//1
f 33//1 38//1 37//1
f 33//1 39//1 38//1
f 33//1 40//1 39//1
f 33//1 41//1 40//1
f 33//1 42//1 41//1
f 33//1 43//1 42//1
f 33//1 44//1 43//1
f 33//1 45//1 44//1
f 33//1 46//1 45//1
f 33//1 47//1 46//1
f 33//1 48//1 47//1
f 33//1 49//1 48//1
f 33//1 50//1 49//1
f 33//1 1//1 50//1
f 33//1 32//1 1//1
f 32//1 2//1 1//1
f 31//1 2//1 32//1
f 27//1 29//1 28//1
f 27//1 30//1 29//1
f 27//1 31//1 30//1
f 27//1 2//1 31//1
f 26//1 2//1 27//1
f 26//1 3//1 2//1
f 25//1 3//1 26//1
f 25//1 4//1 3//1
f 24//1 4//1 25//1
f 24//1 5//1 4//1
f 23//1 5//1 24//1
f 23//1 6//1 5//1
f 22//1 6//1 23//1
f 22//1 7//1 6//1
f 21//1 7//1 22//1
f 21//1 8//1 7//1
f 21//1 9//1 8//1
f 20//1 9//1 21//1
f 20//1 10//1 9//1
f 19//1 10//1 20//1
f 19//1 11//1 10//1
f 18//1 11//1 19//1
f 18//1 12//1 11//1
f 17//1 12//1 18//1
f 17//1 13//1 12//1
f 16//1 13//1 17//1
f 16//1 14//1 13//1
f 15//1 14//1 16//1
f 87//2 83//2 84//2
f 85//2 87//2 84//2
f 86//2 87//2 85//2
f 88//2 83//2 87//2
f 89//2 83//2 88//2
f 90//2 83//2 89//2
f 91//2 83//2 90//2
f 92//2 83//2 91//2
f 93//2 83//2 92//2
f 94//2 83//2 93//2
f 95//2 83//2 94//2
f 96//2 83//2 95//2
f 97//2 83//2 96//2
f 98//2 83//2 97//2
f 99//2 83//2 98//2
f 100//2 83//2 99//2
f 51//2 83//2 100//2
f 82//2 83//2 51//2
f 52//2 82//2 51//2
f 52//2 81//2 82//2
f 79//2 77//2 78//2
f 80//2 77//2 79//2
f 81//2 77//2 80//2
f 52//2 77//2 81//2
f 52//2 76//2 77//2
f 53//2 76//2 52//2
f 53//2 75//2 76//2
f 54//2 75//2 53//2
f 54//2 74//2 75//2
f 55//2 74//2 54//2
f 55//2 73//2 74//2
f 56//2 73//2 55//2
f 56//2 72//2 73//2
f 57//2 72//2 56//2
f 57//2 71//2 72//2
f 58//2 71//2 57//2
f 59//2 71//2 58//2
f 59//2 70//2 71//2
f 60//2 70//2 59//2
f 60//2 69//2 70//2
f 61//2 69//2 60//2
f 61//2 68//2 69//2
f 62//2 68//2 61//2
f 62//2 67//2 68//2
f 63//2 67//2 62//2
f 63//2 66//2 67//2
f 64//2 66//2 63//2
f 64//2 65//2 66//2
s 1
f 102//3 104//4 103//4 101//3
f 104//4 106//5 105//5 103//4
f 106//5 108//6 107//6 105//5
f 108//6 110//7 109//7 107//6
f 110//7 112//8 111//8 109//7
f 112//8 114//9 113//9 111//8
f 114//9 116//10 115//10 113//9
f 116//10 118//11 117//11 115//10
f 118//11 120//12 119//12 117//11
f 120//12 122//13 121//13 119//12
f 122//13 124//14 123//14 121//13
f 124//14 126//15 125//15 123//14
f 126//15 128//16 127//16 125//15
f 128//16 130//17 129//17 127//16
f 130//17 132//18 131//18 129//17
f 132//18 134//19 133//19 131//18
f 134//19 136//20 135//20 133//19
f 136//20 138//21 137//21 135//20
f 138//21 140//22 139//22 137//21
f 140//22 142//23 141//23 139//22
f 142//23 144//24 143//24 141//23
f 144//24 146//25 145//25 143//24
f 146//25 148//26 147//26 145//25
f 148//26 150//27 149//27 147//26
f 150//27 152//28 151//28 149//27
f 152//28 154//29 153//29 151//28
f 154//29 156//30 155//30 153//29
f 156//30 158//31 157//31 155//30
f 158//31 160//31 159//31 157//31
f 160//31 162//30 161//30 159//31
f 162//30 164//32 163//32 161//30
f 164//32 166//33 165//33 163//32
f 166//33 168//34 167//34 165//33
f 168//34 170//31 169//31 167//34
f 170//31 172//35 171//35 169//31
f 172//35 174//36 173//36 171//35
f 174//36 176//37 175//37 173//36
f 176//37 178//38 177//38 175//37
f 178//38 180//39 179//39 177//38
f 180//39 182//40 181//40 179//39
f 182//40 184//41 183//41 181//40
f 184//41 186//42 185//42 183//41
f 186//42 188//43 187//43 185//42
f 188//43 190//31 189//31 187//43
f 190//31 192//44 191//44 189//31
f 192//44 194//45 193//45 191//44
f 194//45 196//46 195//46 193//45
f 196//46 198//47 197//47 195//46
f 198//47 200//48 199//48 197//47
f 200//48 102//3 101//3 199//48
