# Blender v2.79 (sub 0) OBJ File: 'numeros3d.blend'
# www.blender.org
mtllib 7.mtl
o Text_Text.005
v 1.577373 1.172871 0.834915
v 1.577373 1.111697 0.834915
v 1.430146 0.534617 0.834915
v 1.332267 0.534617 0.834915
v 1.475415 1.090898 0.834915
v 1.353474 1.090898 0.834915
v 1.353474 0.997504 0.834915
v 1.261304 0.997504 0.834915
v 1.261304 1.172871 0.834915
v 1.577373 1.172871 0.734915
v 1.577373 1.111697 0.734915
v 1.430146 0.534617 0.734915
v 1.332267 0.534617 0.734915
v 1.475415 1.090898 0.734915
v 1.353474 1.090898 0.734915
v 1.353474 0.997504 0.734915
v 1.261304 0.997504 0.734915
v 1.261304 1.172871 0.734915
v 1.577373 1.172871 0.734915
v 1.577373 1.172871 0.834915
v 1.577373 1.111697 0.734915
v 1.577373 1.111697 0.834915
v 1.430146 0.534617 0.734915
v 1.430146 0.534617 0.834915
v 1.332267 0.534617 0.734915
v 1.332267 0.534617 0.834915
v 1.475415 1.090898 0.734915
v 1.475415 1.090898 0.834915
v 1.353474 1.090898 0.734915
v 1.353474 1.090898 0.834915
v 1.353474 0.997504 0.734915
v 1.353474 0.997504 0.834915
v 1.261304 0.997504 0.734915
v 1.261304 0.997504 0.834915
v 1.261304 1.172871 0.734915
v 1.261304 1.172871 0.834915
vn 0.0000 0.0000 1.0000
vn 0.0000 0.0000 -1.0000
vn 0.7071 0.7071 0.0000
vn 0.9922 -0.1245 0.0000
vn 0.6135 -0.7897 0.0000
vn -0.7903 -0.6127 0.0000
vn 0.7071 -0.7071 0.0000
vn -0.7071 -0.7071 0.0000
vn -0.7071 0.7071 0.0000
usemtl None
s off
f 8//1 6//1 9//1
f 6//1 1//1 9//1
f 6//1 2//1 1//1
f 6//1 5//1 2//1
f 5//1 3//1 2//1
f 8//1 7//1 6//1
f 4//1 3//1 5//1
f 15//2 17//2 18//2
f 10//2 15//2 18//2
f 11//2 15//2 10//2
f 14//2 15//2 11//2
f 12//2 14//2 11//2
f 16//2 17//2 15//2
f 12//2 13//2 14//2
s 1
f 20//3 22//4 21//4 19//3
f 22//4 24//5 23//5 21//4
f 24//5 26//6 25//6 23//5
f 26//6 28//6 27//6 25//6
f 28//6 30//7 29//7 27//6
f 30//7 32//7 31//7 29//7
f 32//7 34//8 33//8 31//7
f 34//8 36//9 35//9 33//8
f 36//9 20//3 19//3 35//9
